<svg width="755" height="1260" viewBox="0 0 755 1260" fill="none" xmlns="http://www.w3.org/2000/svg">
<rect width="755" height="302" rx="30" fill="#313131"/>
<rect y="328" width="755" height="932" rx="30" fill="#313131"/>
<rect x="38" y="367" width="151" height="151" rx="16" fill="#62BC54"/>
<rect x="38" y="543" width="151" height="151" rx="16" fill="#3F3F3F"/>
<rect x="38" y="719" width="151" height="151" rx="16" fill="#3F3F3F"/>
<rect x="38" y="895" width="151" height="151" rx="16" fill="#3F3F3F"/>
<rect x="38" y="1071" width="151" height="151" rx="16" fill="#3F3F3F"/>
<rect x="214" y="543" width="151" height="151" rx="16" fill="#3F3F3F"/>
<rect x="214" y="719" width="151" height="151" rx="16" fill="#3F3F3F"/>
<rect x="214" y="895" width="151" height="151" rx="16" fill="#3F3F3F"/>
<rect x="214" y="1071" width="151" height="151" rx="16" fill="#3F3F3F"/>
<rect x="214" y="367" width="151" height="151" rx="16" fill="#62BC54"/>
<rect x="390" y="543" width="151" height="151" rx="16" fill="#3F3F3F"/>
<rect x="390" y="719" width="151" height="151" rx="16" fill="#3F3F3F"/>
<rect x="390" y="895" width="151" height="151" rx="16" fill="#3F3F3F"/>
<rect x="390" y="367" width="151" height="151" rx="16" fill="#8E54BC"/>
<rect x="566" y="367" width="151" height="151" rx="16" fill="#8E54BC"/>
<rect x="566" y="543" width="151" height="151" rx="16" fill="#8E54BC"/>
<rect x="566" y="719" width="151" height="327" rx="16" fill="#8E54BC"/>
<rect x="390" y="1071" width="327" height="151" rx="16" fill="#1265E1"/>
</svg>
